<svg width="100%" height="100%" viewBox="0 0 800 600" xmlns="http://www.w3.org/2000/svg">
  <defs>
    <!-- Soft gradient background -->
    <linearGradient id="bgGradient" x1="0" y1="0" x2="1" y2="1">
      <stop offset="0%" stop-color="#475569"/>  <!-- Slate-600 -->
      <stop offset="50%" stop-color="#64748b"/>  <!-- Slate-500 -->
      <stop offset="100%" stop-color="#94a3b8"/> <!-- Slate-400 -->
    </linearGradient>

    <!-- Glowing Connection Path -->
    <radialGradient id="connectionGradient" cx="50%" cy="50%" r="50%">
      <stop offset="0%" stop-color="#e2e8f0"/>  <!-- Slate-200 -->
      <stop offset="100%" stop-color="#94a3b8"/> <!-- Slate-400 -->
    </radialGradient>
  </defs>

  <!-- Background -->
  <rect width="100%" height="100%" fill="url(#bgGradient)"/>

  <!-- Flowing Waves for Connection -->
  <path d="M0 400 Q200 300 400 400 T800 400 V600 H0 Z" fill="#475569" opacity="0.8"/>
  <path d="M0 450 Q200 350 400 450 T800 450 V600 H0 Z" fill="#64748b" opacity="0.6"/>

  <!-- Intertwining Bonding Paths -->
  <path d="M100 200 Q300 50, 500 200 T800 200" stroke="url(#connectionGradient)" stroke-width="8" fill="none" opacity="0.7"/>
  <path d="M50 300 Q250 100, 550 300 T750 300" stroke="url(#connectionGradient)" stroke-width="6" fill="none" opacity="0.6"/>
  <path d="M150 250 Q350 80, 650 250 T850 250" stroke="url(#connectionGradient)" stroke-width="5" fill="none" opacity="0.5"/>

  <!-- Heart-Like Abstract Curves -->
  <path d="M350 200 Q400 100, 450 200 Q500 300, 550 200" stroke="#e2e8f0" stroke-width="6" fill="none" opacity="0.8"/>
  <path d="M200 280 Q250 180, 300 280 Q350 380, 400 280" stroke="#e2e8f0" stroke-width="6" fill="none" opacity="0.7"/>
</svg>
